<?xml version="1.0" encoding="utf-8"?>
<!-- Generator: Adobe Illustrator 19.0.0, SVG Export Plug-In . SVG Version: 6.00 Build 0)  -->
<svg version="1.1" id="Layer_1" xmlns="http://www.w3.org/2000/svg" xmlns:xlink="http://www.w3.org/1999/xlink" x="0px" y="0px"
	 viewBox="0 0 100 100" style="enable-background:new 0 0 100 100;" xml:space="preserve">
<style type="text/css">
	.st0{fill:#9B9C9C;}
</style>
<path class="st0" d="M98.2,49.8C98.2,23,76.5,1.3,49.7,1.3C22.9,1.3,1.2,23,1.2,49.8c0,26.8,21.7,48.5,48.5,48.5
	C76.5,98.3,98.2,76.6,98.2,49.8 M89.1,49.8c0,21.8-17.6,39.4-39.4,39.4c-21.8,0-39.4-17.6-39.4-39.4c0-21.8,17.6-39.4,39.4-39.4
	C71.5,10.4,89.1,28,89.1,49.8 M70.2,48L52.7,30.6c-1.6-2.7-4.3-2.7-6,0L29.2,48c-1.6,2.7-0.3,4.9,3,4.9h8.4V68c0,1.7,1.4,3,3,3h12.1
	c1.7,0,3-1.4,3-3V52.8h8.4C70.5,52.8,71.8,50.6,70.2,48"/>
</svg>
